<svg width="171" height="227" viewBox="0 0 171 227" fill="none" xmlns="http://www.w3.org/2000/svg">
<path d="M27.8649 6.01953L43.5142 1.30587C50.638 -0.843325 58.3005 -0.326632 65.0712 2.7595C71.842 5.84563 77.2583 11.2903 80.309 18.0771L90.0474 39.741C92.6715 45.5771 93.4025 52.0883 92.1378 58.361C90.8732 64.6337 87.6763 70.353 82.9958 74.7163L65.9795 90.5825C65.7692 90.7789 65.5967 91.0121 65.4704 91.2707C63.6887 94.9096 66.3943 104.629 74.8695 119.317C84.4287 135.871 91.8103 142.414 95.2324 141.405L117.566 134.57C123.682 132.703 130.229 132.796 136.29 134.836C142.351 136.877 147.621 140.763 151.363 145.949L165.202 165.115C169.547 171.133 171.559 178.523 170.866 185.913C170.172 193.303 166.82 200.19 161.431 205.294L149.524 216.56C145.384 220.482 140.356 223.344 134.87 224.901C129.384 226.459 123.602 226.667 118.018 225.506C84.8624 218.605 55.157 191.907 28.6474 145.996C2.12835 100.057 -6.13941 60.9336 4.51345 28.7582C6.29668 23.3715 9.35034 18.4931 13.4164 14.5354C17.4825 10.5776 22.4414 7.65673 27.8743 6.01953H27.8649ZM31.9563 19.5571C28.6965 20.539 25.7208 22.2911 23.2809 24.6655C20.8409 27.0398 19.0083 29.9666 17.9379 33.1985C8.75574 60.9242 16.1939 96.1446 40.8934 138.926C65.5741 181.679 92.3288 205.718 120.894 211.657C124.245 212.354 127.716 212.23 131.009 211.294C134.302 210.358 137.32 208.639 139.805 206.284L151.702 195.028C154.605 192.28 156.411 188.572 156.786 184.592C157.16 180.613 156.077 176.633 153.738 173.392L139.899 154.217C137.885 151.425 135.048 149.333 131.785 148.234C128.522 147.135 124.997 147.084 121.704 148.089L99.3145 154.943C86.927 158.629 75.2748 148.306 62.6234 126.378C51.9045 107.825 48.1902 94.4194 52.7718 85.0581C53.658 83.248 54.8647 81.6171 56.3354 80.2407L73.3517 64.3746C75.8729 62.0251 77.5951 58.9451 78.2765 55.5669C78.9579 52.1887 78.5643 48.6819 77.1509 45.5388L67.4125 23.8843C65.7698 20.2289 62.8528 17.2965 59.2062 15.6345C55.5596 13.9725 51.4327 13.6947 47.5962 14.8529L31.9469 19.5666L31.9563 19.5571Z" fill="#0D0D0D" fill-opacity="0.05"/>
</svg>
