<svg width="86" height="86" viewBox="0 0 86 86" fill="none" xmlns="http://www.w3.org/2000/svg">
<circle cx="43" cy="43" r="43" fill="#46D265"/>
<path d="M33.6802 25.011L36.3086 24.2193C37.5051 23.8584 38.7921 23.9451 39.9293 24.4635C41.0665 24.9818 41.9762 25.8963 42.4886 27.0362L44.1243 30.6749C44.565 31.6551 44.6878 32.7487 44.4754 33.8022C44.2629 34.8558 43.726 35.8164 42.9399 36.5493L40.0818 39.2141C40.0465 39.2471 40.0175 39.2863 39.9963 39.3297C39.6971 39.9409 40.1515 41.5734 41.575 44.0403C43.1805 46.8208 44.4204 47.9197 44.9951 47.7502L48.7462 46.6023C49.7735 46.2886 50.8732 46.3042 51.8911 46.6469C52.9091 46.9896 53.7943 47.6423 54.4227 48.5134L56.7471 51.7325C57.4769 52.7432 57.8149 53.9845 57.6984 55.2257C57.5819 56.4669 57.0188 57.6236 56.1138 58.4809L54.1139 60.3731C53.4185 61.0318 52.574 61.5125 51.6526 61.7742C50.7311 62.0358 49.76 62.0707 48.8222 61.8757C43.2534 60.7167 38.2641 56.2325 33.8116 48.5213C29.3575 40.8054 27.9688 34.2343 29.7581 28.8302C30.0576 27.9254 30.5705 27.1061 31.2534 26.4413C31.9363 25.7766 32.7692 25.286 33.6817 25.011H33.6802ZM34.3673 27.2848C33.8198 27.4497 33.32 27.744 32.9102 28.1428C32.5004 28.5416 32.1926 29.0331 32.0128 29.576C30.4706 34.2328 31.7199 40.1483 35.8684 47.3338C40.0138 54.5145 44.5074 58.5522 49.3051 59.5497C49.8681 59.6668 50.451 59.6458 51.0042 59.4887C51.5573 59.3315 52.0641 59.0428 52.4814 58.6472L54.4797 56.7566C54.9672 56.2951 55.2706 55.6723 55.3335 55.0039C55.3964 54.3356 55.2146 53.6671 54.8217 53.1227L52.4973 49.9021C52.159 49.4331 51.6824 49.0817 51.1344 48.8972C50.5864 48.7126 49.9944 48.7041 49.4413 48.8729L45.6807 50.024C43.6002 50.6431 41.6431 48.9093 39.5181 45.2263C37.7178 42.1102 37.094 39.8586 37.8635 38.2863C38.0123 37.9822 38.215 37.7083 38.462 37.4771L41.3201 34.8123C41.7435 34.4177 42.0328 33.9003 42.1472 33.3329C42.2617 32.7655 42.1956 32.1766 41.9582 31.6486L40.3225 28.0116C40.0466 27.3976 39.5567 26.9051 38.9442 26.626C38.3317 26.3468 37.6386 26.3001 36.9942 26.4947L34.3658 27.2864L34.3673 27.2848Z" fill="#FAFAFA"/>
</svg>
