<svg width="107" height="107" viewBox="0 0 107 107" fill="none" xmlns="http://www.w3.org/2000/svg">
<g clip-path="url(#clip0_224_4970)">
<path d="M20.6125 63.6571C19.9492 63.3286 19.2034 63.2042 18.4694 63.2995C17.7353 63.3949 17.0461 63.7058 16.4888 64.1929C15.9314 64.68 15.531 65.3214 15.3383 66.0361C15.1455 66.7507 15.1689 67.5065 15.4057 68.2078C15.6424 68.9091 16.0818 69.5245 16.6683 69.9761C17.2547 70.4277 17.962 70.6952 18.7005 70.7449C19.439 70.7945 20.1757 70.6241 20.8173 70.2551C21.459 69.8861 21.9768 69.3351 22.3053 68.6718C22.7447 67.7821 22.8132 66.7545 22.4958 65.8144C22.1785 64.8743 21.5012 64.0985 20.6125 63.6571ZM18.3979 68.1287C18.1768 68.0192 17.9932 67.8466 17.8702 67.6327C17.7472 67.4189 17.6903 67.1733 17.7069 66.9271C17.7234 66.681 17.8126 66.4452 17.9632 66.2497C18.1137 66.0542 18.3188 65.9078 18.5526 65.8289C18.7864 65.7499 19.0383 65.7421 19.2765 65.8064C19.5147 65.8706 19.7285 66.0041 19.8909 66.1899C20.0532 66.3757 20.1569 66.6054 20.1887 66.8501C20.2205 67.0948 20.179 67.3434 20.0695 67.5645C19.9224 67.8607 19.6637 68.0865 19.3504 68.1922C19.037 68.298 18.6945 68.2752 18.3979 68.1287Z" fill="#0D0D0D" fill-opacity="0.1"/>
<path d="M90.871 53.9054L77.4561 47.2616C76.8553 46.9634 76.1851 46.8332 75.5164 46.8848C75.5132 46.2148 75.4021 45.5497 75.1875 44.915L75.0507 44.5094C74.9978 44.3543 74.9762 44.1902 74.9872 44.0266C74.9982 43.8631 75.0415 43.7034 75.1147 43.5567L75.7827 42.2077C76.7807 42.534 77.8628 42.49 78.831 42.0837C79.7991 41.6774 80.5886 40.936 81.0548 39.9952L84.4242 33.1919C84.7451 32.5438 84.9353 31.8389 84.9838 31.1174C85.0323 30.3959 84.9383 29.6719 84.707 28.9867C84.4757 28.3016 84.1117 27.6687 83.6358 27.1242C83.1599 26.5797 82.5815 26.1342 81.9334 25.8133L71.6804 20.7355C71.0324 20.4145 70.3275 20.2244 69.606 20.1758C68.8844 20.1273 68.1604 20.2214 67.4753 20.4527C66.7901 20.684 66.1572 21.0479 65.6127 21.5238C65.0682 21.9997 64.6228 22.5782 64.3018 23.2262L63.4239 24.999L62.3059 24.4454L61.1987 26.6812L65.6703 28.8958L64.4014 31.4579C63.8441 32.574 63.636 33.8322 63.8043 35.0683C63.9726 36.3045 64.5094 37.4613 65.3448 38.3878L66.446 39.6172C66.6131 39.8025 66.7204 40.0338 66.7541 40.281C66.7877 40.5283 66.7461 40.7799 66.6346 41.0031L65.9527 42.3801L65.2603 42.6138L52.3706 36.2301C52.4119 35.8764 52.4031 35.5186 52.3446 35.1674C52.2505 34.5813 52.0169 34.0264 51.6634 33.5495C51.31 33.0726 50.847 32.6877 50.3137 32.4272L43.7709 29.1869C42.5096 28.5622 41.0964 28.31 39.6968 28.4597C38.2973 28.6094 36.9694 29.1548 35.8687 30.0321C34.768 30.9094 33.9401 32.0822 33.4821 33.4131C33.024 34.744 32.9547 36.1779 33.2823 37.5468L34.0386 40.7073C34.0903 40.9234 34.0833 41.1493 34.0185 41.3617C33.9537 41.5741 33.8334 41.7654 33.67 41.9159L22.5797 52.1196C22.0469 51.9087 21.4746 51.8167 20.9026 51.8498L14.1085 52.2533C13.2691 52.3016 12.4672 52.618 11.821 53.1559C11.1747 53.6939 10.7181 54.4251 10.5183 55.2419C10.3186 56.0587 10.3862 56.918 10.7112 57.6935C11.0362 58.4691 11.6016 59.1198 12.324 59.5501C11.2549 60.4998 10.4024 61.6682 9.82417 62.9761C9.24599 64.2841 8.95564 65.701 8.97279 67.1309C8.98995 68.5608 9.31421 69.9703 9.92361 71.264C10.533 72.5577 11.4133 73.7053 12.5049 74.6291C13.5965 75.5529 14.8739 76.2313 16.2505 76.6183C17.6272 77.0054 19.0709 77.0921 20.484 76.8726C21.897 76.653 23.2464 76.1323 24.4407 75.3458C25.635 74.5593 26.6463 73.5253 27.4062 72.3139C27.7153 72.6491 28.0833 72.925 28.4918 73.1277L50.8897 84.2203C50.056 86.618 50.1675 89.2434 51.2014 91.5618C52.2354 93.8803 54.1141 95.7175 56.455 96.6994C58.7959 97.6813 61.4231 97.7342 63.8017 96.8471C66.1802 95.9601 68.1312 94.1999 69.2575 91.9249L72.0085 86.3702C72.2286 85.9222 72.5784 85.551 73.0126 85.3049C73.4467 85.0587 73.9449 84.9491 74.4422 84.9903L76.0872 85.121C77.0819 85.2034 78.0783 84.9842 78.9465 84.4919C79.8147 83.9996 80.5144 83.2572 80.9544 82.3614L82.0445 80.1603C82.602 79.0364 82.7138 77.7432 82.3575 76.5403C82.8855 76.4105 83.3787 76.167 83.8027 75.8268C84.2268 75.4866 84.5715 75.058 84.8127 74.5708L92.5638 58.9201C93.0031 58.0304 93.0716 57.0028 92.7543 56.0627C92.4369 55.1226 91.7596 54.3468 90.871 53.9054ZM66.7776 26.66L65.6597 26.1063L66.5377 24.3335C66.8922 23.6178 67.5165 23.0721 68.2733 22.8167C69.03 22.5612 69.8573 22.6168 70.5731 22.9713L80.8261 28.0491C81.5419 28.4036 82.0875 29.0279 82.343 29.7847C82.5984 30.5415 82.5428 31.3688 82.1884 32.0846L78.819 38.8879C78.7073 39.1134 78.5514 39.314 78.3605 39.4778C78.1695 39.6416 77.9475 39.7652 77.7077 39.8413C77.4679 39.9173 77.2152 39.9442 76.9648 39.9203C76.7143 39.8965 76.4713 39.8224 76.2501 39.7024C75.3754 39.2299 75.0382 38.0893 75.4984 37.16C76.1487 35.8433 76.2501 34.3224 75.7804 32.9311C75.3107 31.5397 74.3083 30.3914 72.9931 29.7382L66.7776 26.66ZM73.2044 39.9321L69.1632 41.2963C69.3008 40.711 69.2945 40.1011 69.1449 39.5188C68.9954 38.9364 68.7069 38.399 68.3044 37.9525L68.2834 37.9291L72.969 36.8078C72.6644 37.8431 72.7481 38.9541 73.2044 39.9321ZM66.5803 35.7713C66.3503 35.2664 66.2361 34.7165 66.2459 34.1618C66.2557 33.6071 66.3894 33.0616 66.6372 32.5652L67.9061 30.0031L71.8858 31.974C72.3034 32.1812 72.6677 32.4818 72.9505 32.8525C73.2333 33.2231 73.427 33.6538 73.5166 34.1114L66.5803 35.7713ZM51.2617 38.4651L61.9173 43.7423L60.043 44.375C59.5776 44.5335 59.0853 44.5982 58.5947 44.5652C58.1041 44.5322 57.625 44.4022 57.1849 44.1828L49.4091 40.3318L51.2617 38.4651ZM47.8687 42.3531L56.0776 46.4186C56.811 46.7843 57.6096 47.0009 58.4272 47.0559C59.2448 47.1109 60.0652 47.0032 60.841 46.739L72.7608 42.7152C72.4254 43.5422 72.3991 44.4624 72.6867 45.3073L72.8236 45.713C72.9821 46.1784 73.0468 46.6706 73.0138 47.1612C72.9808 47.6517 72.8508 48.1309 72.6314 48.5708L68.5659 56.7798L61.8585 53.4579L62.7364 51.6852L67.2616 50.1576L66.4634 47.7937L60.0642 49.954C59.5988 50.1125 59.1065 50.1771 58.616 50.1441C58.1254 50.1111 57.6462 49.9812 57.2062 49.7618L46.7614 44.589L47.8687 42.3531ZM36.631 68.806L35.1674 68.0812C34.9896 67.9929 34.8354 67.8635 34.7175 67.7037C34.5997 67.544 34.5215 67.3585 34.4896 67.1625L33.2014 59.1997C33.0965 58.557 32.8336 57.9504 32.4362 57.4344L43.8514 45.932L56.0989 51.9976C57.1487 52.5202 58.3253 52.7342 59.4919 52.6145L57.9617 55.7043C57.8146 56.0006 57.556 56.2263 57.2426 56.3321C56.9292 56.4379 56.5867 56.4151 56.2901 56.2686L55.1722 55.715C53.6895 54.9827 51.9768 54.8685 50.41 55.3974C48.8431 55.9264 47.5501 57.0552 46.8145 58.5363L43.4926 65.2437L42.9336 64.9669C42.2736 64.6398 41.5415 64.485 40.8055 64.517C40.0696 64.549 39.3537 64.7668 38.7246 65.15C38.0954 65.5332 37.5735 66.0694 37.2075 66.7087C36.8414 67.348 36.6431 68.0695 36.631 68.806ZM43.4077 42.928C43.1112 42.7812 42.8852 42.5226 42.7793 42.2091C42.6735 41.8956 42.6966 41.553 42.8434 41.2565C42.9902 40.96 43.2488 40.734 43.5623 40.6281C43.8758 40.5223 44.2185 40.5454 44.515 40.6922L45.6329 41.2458L44.5256 43.4817L43.4077 42.928ZM41.8263 67.2027L47.9748 70.2478L47.1444 71.9246C46.9237 72.369 46.5358 72.7076 46.0657 72.8663C45.5957 73.025 45.0818 72.9907 44.637 72.771L40.1654 70.5564C39.7207 70.3362 39.3816 69.9483 39.2229 69.4781C39.0642 69.0079 39.0987 68.4938 39.319 68.0491C39.5393 67.6044 39.9272 67.2654 40.3974 67.1066C40.8676 66.9479 41.3816 66.9825 41.8263 67.2027ZM45.7284 66.351L49.0503 59.6436C49.4916 58.7549 50.2675 58.0776 51.2076 57.7603C52.1477 57.4429 53.1753 57.5114 54.0649 57.9508L55.1828 58.5044C56.0725 58.9438 57.1001 59.0123 58.0402 58.6949C58.9803 58.3776 59.7561 57.7003 60.1975 56.8116L60.7512 55.6937L67.4586 59.0156L64.6904 64.6052C64.5433 64.9014 64.2846 65.1271 63.9713 65.2329C63.6579 65.3387 63.3154 65.3159 63.0188 65.1694L57.4293 62.4012C56.2431 61.8154 54.8729 61.724 53.6195 62.1472C52.366 62.5703 51.3315 63.4734 50.7431 64.6582L49.0821 68.012L45.7284 66.351ZM45.2889 32.7229L49.2064 34.663C49.3835 34.7507 49.5373 34.8793 49.655 35.0381C49.7727 35.1969 49.8509 35.3814 49.8833 35.5764C49.9158 35.7714 49.9014 35.9713 49.8414 36.1597C49.7814 36.348 49.6775 36.5194 49.5382 36.6597L47.0523 39.1646L45.6222 38.4564C44.8004 38.0493 43.8578 37.9581 42.9732 38.2003C42.0886 38.4424 41.3238 39.0009 40.8238 39.7698C40.3239 40.5387 40.1238 41.4644 40.2614 42.3711C40.399 43.2778 40.8648 44.1024 41.5703 44.6884L34.6412 51.6704L32.7719 46.1326L35.3593 43.752C35.8494 43.3007 36.2103 42.7269 36.4047 42.0896C36.599 41.4523 36.6199 40.7747 36.4652 40.1267L35.9722 38.0669L37.417 38.0614C38.2364 38.0605 39.0475 37.8971 39.8034 37.5806C40.5593 37.2641 41.2449 36.8009 41.8205 36.2177L45.2889 32.7229ZM35.5854 35.5734C35.6258 34.7603 35.8681 33.9701 36.2902 33.274C36.7123 32.5778 37.301 31.9977 38.0033 31.5859C38.7055 31.1741 39.4992 30.9436 40.3128 30.9151C41.1264 30.8866 41.9343 31.0611 42.6636 31.4227L42.932 31.5556L40.0495 34.4602C39.7041 34.8101 39.2928 35.0881 38.8392 35.278C38.3857 35.4679 37.899 35.5659 37.4073 35.5664L35.5854 35.5734ZM30.7626 47.9813L32.6763 53.6504L30.3792 55.9651L24.9873 53.2948L30.7626 47.9813ZM15.6298 73.7183C14.2737 73.0473 13.1529 71.9809 12.4153 70.6599C11.6777 69.3389 11.3579 67.8253 11.498 66.3188C11.6382 64.8123 12.2318 63.3837 13.2005 62.2214C14.1691 61.0592 15.4674 60.2179 16.924 59.8085L19.9449 59.4193C20.2261 59.3828 20.5119 59.4306 20.7659 59.5567L24.3897 61.3514C24.5944 61.4531 24.772 61.602 24.9077 61.7859C25.0434 61.9699 25.1333 62.1835 25.1701 62.4091L26.2099 68.8365C25.9378 69.9205 25.4262 70.9297 24.7129 71.7901C23.9995 72.6505 23.1025 73.3401 22.0877 73.8084C21.0729 74.2766 19.966 74.5116 18.8485 74.496C17.731 74.4804 16.6312 74.2146 15.6298 73.7183ZM56.9924 94.2032C55.6658 93.5462 54.5638 92.5106 53.8258 91.2273C53.0878 89.9439 52.7469 88.4706 52.8462 86.9936C52.9455 85.5165 53.4806 84.1021 54.3838 82.9291C55.287 81.7562 56.5177 80.8774 57.9203 80.4039C59.3229 79.9305 60.8345 79.8835 62.2638 80.2691C63.6931 80.6547 64.9759 81.4554 65.9501 82.5701C66.9243 83.6848 67.5461 85.0633 67.7369 86.5313C67.9276 87.9994 67.6787 89.491 67.0217 90.8176C66.139 92.5949 64.5873 93.9495 62.7071 94.5842C60.8269 95.2189 58.7717 95.0819 56.9924 94.2032ZM76.2849 82.6339L74.6399 82.5032C73.7091 82.426 72.7755 82.613 71.9462 83.0427C71.1169 83.4725 70.4257 84.1275 69.9521 84.9324C69.4598 83.0736 68.4404 81.3967 67.0169 80.104C65.5934 78.8112 63.8264 77.9576 61.9289 77.646C60.0313 77.3345 58.0842 77.5783 56.322 78.348C54.5598 79.1178 53.0578 80.3806 51.997 81.9845L29.5991 70.8919C29.4213 70.8036 29.2671 70.6742 29.1492 70.5144C29.0314 70.3547 28.9532 70.1692 28.9213 69.9732L28.7502 68.9157L28.7519 68.9078L28.7489 68.9072L27.6331 62.0104C27.5325 61.3929 27.2863 60.8083 26.9148 60.3049C26.5433 59.8015 26.0573 59.3938 25.497 59.1156L21.8732 57.3209C21.1779 56.9757 20.3958 56.8448 19.626 56.9448L16.5134 57.3459L16.5104 57.334C16.4833 57.3409 16.457 57.3496 16.43 57.3567L14.5251 57.6021C14.3231 57.6282 14.1179 57.6109 13.9231 57.5516C13.7283 57.4923 13.5483 57.3922 13.3951 57.258C13.2419 57.1238 13.119 56.9585 13.0346 56.7732C12.9501 56.5879 12.906 56.3867 12.9053 56.183C12.904 55.816 13.0433 55.4623 13.2946 55.1947C13.5458 54.9271 13.8899 54.7657 14.2563 54.7438L21.0504 54.3404C21.2999 54.3257 21.549 54.3763 21.7731 54.4871L29.958 58.5407C30.1627 58.6424 30.3403 58.7913 30.476 58.9753C30.6117 59.1592 30.7017 59.3728 30.7384 59.5984L32.0266 67.5611C32.1224 68.149 32.3568 68.7055 32.7104 69.1848C33.064 69.664 33.5267 70.0521 34.0601 70.317L43.5297 75.0068C44.5677 75.5194 45.7665 75.5994 46.8633 75.2291C47.9601 74.8589 48.8653 74.0687 49.3802 73.0319L51.8716 68.0013L78.7011 81.2887C78.4771 81.7273 78.1279 82.0893 77.6976 82.3288C77.2674 82.5684 76.7757 82.6746 76.2849 82.6339ZM52.9789 65.7655C53.2731 65.1731 53.7904 64.7216 54.4171 64.51C55.0438 64.2984 55.7289 64.3441 56.322 64.637L78.6802 75.7099C79.2726 76.0042 79.7241 76.5214 79.9357 77.1481C80.1472 77.7749 80.1016 78.4599 79.8087 79.053L52.9789 65.7655ZM82.5769 73.4635C82.4298 73.7597 82.1712 73.9855 81.8578 74.0913C81.5444 74.197 81.2019 74.1742 80.9054 74.0278L67.4905 67.384C67.1942 67.2369 66.9685 66.9783 66.8627 66.6649C66.7569 66.3515 66.7797 66.009 66.9262 65.7124L73.0163 53.4155L88.667 61.1665L82.5769 73.4635ZM89.7743 58.9307L74.1236 51.1796L74.6772 50.0617C74.8244 49.7655 75.083 49.5397 75.3963 49.434C75.7097 49.3282 76.0522 49.351 76.3488 49.4975L89.7637 56.1412C90.0599 56.2883 90.2857 56.547 90.3915 56.8603C90.4972 57.1737 90.4744 57.5162 90.328 57.8128L89.7743 58.9307Z" fill="#0D0D0D" fill-opacity="0.1"/>
<path d="M92.5214 47.7622L83.5781 43.333L82.4708 45.5689L91.4141 49.998L92.5214 47.7622Z" fill="#0D0D0D" fill-opacity="0.1"/>
<path d="M96.9716 44.3979L88.0283 39.9687L86.921 42.2045L95.8643 46.6337L96.9716 44.3979Z" fill="#0D0D0D" fill-opacity="0.1"/>
<path d="M101.422 41.0335L94.7148 37.7117L93.6076 39.9475L100.315 43.2694L101.422 41.0335Z" fill="#0D0D0D" fill-opacity="0.1"/>
<path d="M61.9753 84.142C61.312 83.8135 60.5662 83.6891 59.8322 83.7845C59.0981 83.8798 58.4089 84.1907 57.8515 84.6778C57.2942 85.1649 56.8938 85.8064 56.701 86.521C56.5083 87.2356 56.5317 87.9914 56.7685 88.6927C57.0052 89.394 57.4446 90.0094 58.0311 90.461C58.6175 90.9126 59.3248 91.1801 60.0633 91.2298C60.8018 91.2795 61.5385 91.109 62.1801 90.74C62.8218 90.371 63.3396 89.82 63.6681 89.1567C64.1075 88.267 64.176 87.2394 63.8586 86.2993C63.5413 85.3592 62.864 84.5834 61.9753 84.142ZM59.7607 88.6137C59.5396 88.5042 59.356 88.3316 59.233 88.1177C59.11 87.9038 59.0531 87.6582 59.0697 87.4121C59.0862 87.1659 59.1754 86.9301 59.326 86.7346C59.4765 86.5392 59.6816 86.3927 59.9154 86.3138C60.1492 86.2349 60.4011 86.227 60.6393 86.2913C60.8775 86.3556 61.0913 86.489 61.2537 86.6748C61.416 86.8606 61.5197 87.0903 61.5515 87.335C61.5833 87.5797 61.5418 87.8283 61.4323 88.0494C61.2852 88.3456 61.0265 88.5714 60.7132 88.6772C60.3998 88.7829 60.0573 88.7601 59.7607 88.6137Z" fill="#0D0D0D" fill-opacity="0.1"/>
<path d="M80.1821 30.5143L77.9463 29.407L76.839 31.6428L79.0748 32.7501L80.1821 30.5143Z" fill="#0D0D0D" fill-opacity="0.1"/>
<path d="M82.0022 69.0025C82.6384 67.7137 82.8108 66.245 82.4904 64.8439C82.17 63.4428 81.3763 62.195 80.2431 61.3108L80.8525 60.0804L78.6167 58.9732L78.0073 60.2035C76.6173 59.8381 75.1437 59.963 73.8351 60.5573C72.5264 61.1516 71.4627 62.1789 70.8231 63.466L69.7158 65.7018L80.8949 71.2383L82.0022 69.0025ZM73.059 64.5733C73.4995 63.6838 74.2753 63.0058 75.2157 62.6883C76.1561 62.3709 77.1842 62.44 78.0736 62.8805C78.9631 63.321 79.6411 64.0968 79.9586 65.0373C80.276 65.9777 80.2069 67.0057 79.7664 67.8952L73.059 64.5733Z" fill="#0D0D0D" fill-opacity="0.1"/>
</g>
<defs>
<clipPath id="clip0_224_4970">
<rect width="79.8397" height="79.8397" fill="white" transform="translate(35.4336) rotate(26.347)"/>
</clipPath>
</defs>
</svg>
