<svg width="35" height="41" viewBox="0 0 35 41" fill="none" xmlns="http://www.w3.org/2000/svg">
<path d="M34.875 16.2783V14.1355C34.8751 13.1981 34.6702 12.272 34.2746 11.4222C33.8791 10.5724 33.3024 9.81936 32.5852 9.21588C31.8679 8.6124 31.0274 8.17308 30.1224 7.9287C29.2175 7.68433 28.27 7.64081 27.3465 7.8012C26.7454 5.71577 25.4825 3.88234 23.7483 2.5774C22.014 1.27246 19.9026 0.566772 17.7322 0.566772C15.5619 0.566772 13.4504 1.27246 11.7162 2.5774C9.98198 3.88234 8.71909 5.71577 8.11798 7.8012C7.19444 7.64081 6.24699 7.68433 5.34204 7.9287C4.43709 8.17308 3.59652 8.6124 2.87926 9.21588C2.16199 9.81936 1.58538 10.5724 1.18983 11.4222C0.794282 12.272 0.589366 13.1981 0.589442 14.1355V16.2783C0.588819 20.578 2.20397 24.7209 5.11464 27.8856C8.0253 31.0503 12.0189 33.0056 16.3037 33.3639V37.7068H19.1608V33.3639C23.4455 33.0056 27.4391 31.0503 30.3498 27.8856C33.2605 24.7209 34.8756 20.578 34.875 16.2783ZM22.0579 14.8469H13.4065C13.5335 13.7148 13.357 12.5693 12.8951 11.5279C12.4332 10.4866 11.7025 9.58687 10.778 8.9212C11.148 7.35482 12.036 5.95923 13.2982 4.96051C14.5604 3.96179 16.1227 3.41842 17.7322 3.41842C19.3417 3.41842 20.9041 3.96179 22.1662 4.96051C23.4284 5.95923 24.3164 7.35482 24.6865 8.9212C23.7615 9.58712 23.0305 10.4873 22.5686 11.5292C22.1066 12.5711 21.9304 13.7172 22.0579 14.8497V14.8469ZM25.3122 14.8469C25.2062 14.3766 25.2075 13.8884 25.3157 13.4186C25.424 12.9488 25.6366 12.5094 25.9377 12.1329C26.2388 11.7564 26.6208 11.4525 27.0553 11.2436C27.4898 11.0347 27.9658 10.9263 28.4479 10.9263C28.93 10.9263 29.4059 11.0347 29.8405 11.2436C30.275 11.4525 30.6569 11.7564 30.9581 12.1329C31.2592 12.5094 31.4718 12.9488 31.58 13.4186C31.6883 13.8884 31.6895 14.3766 31.5836 14.8469H25.3122ZM10.1523 14.8469H3.88371C3.77777 14.3766 3.77898 13.8884 3.88726 13.4186C3.99554 12.9488 4.20811 12.5094 4.50924 12.1329C4.81037 11.7564 5.19233 11.4525 5.62685 11.2436C6.06136 11.0347 6.5373 10.9263 7.01941 10.9263C7.50152 10.9263 7.97746 11.0347 8.41198 11.2436C8.84649 11.4525 9.22846 11.7564 9.52959 12.1329C9.83071 12.5094 10.0433 12.9488 10.1516 13.4186C10.2598 13.8884 10.2611 14.3766 10.1551 14.8469H10.1523ZM17.7322 30.564C14.1903 30.5639 10.7746 29.2481 8.14812 26.8718C5.52159 24.4956 3.87148 21.2283 3.518 17.704H31.9464C31.593 21.2283 29.9428 24.4956 27.3163 26.8718C24.6898 29.2481 21.2742 30.5639 17.7322 30.564V30.564ZM23.4465 37.7096H12.018C11.6391 37.7096 11.2757 37.8602 11.0078 38.1281C10.7399 38.396 10.5894 38.7593 10.5894 39.1382C10.5894 39.5171 10.7399 39.8804 11.0078 40.1484C11.2757 40.4163 11.6391 40.5668 12.018 40.5668H23.4465C23.8254 40.5668 24.1887 40.4163 24.4566 40.1484C24.7245 39.8804 24.875 39.5171 24.875 39.1382C24.875 38.7593 24.7245 38.396 24.4566 38.1281C24.1887 37.8602 23.8254 37.7096 23.4465 37.7096V37.7096Z" fill="#ECA917"/>
</svg>
