<svg width="37" height="37" viewBox="0 0 37 37" fill="none" xmlns="http://www.w3.org/2000/svg">
<path d="M18.125 0C8.11579 0 0 8.11579 0 18.125C0 28.1342 8.11579 36.25 18.125 36.25C28.1342 36.25 36.25 28.1342 36.25 18.125C36.25 8.11579 28.1342 0 18.125 0ZM18.125 33.1752C9.81501 33.1752 3.07478 26.435 3.07478 18.125C3.07478 9.81501 9.81501 3.07478 18.125 3.07478C26.435 3.07478 33.1752 9.81501 33.1752 18.125C33.1752 26.435 26.435 33.1752 18.125 33.1752Z" fill="#ECA917"/>
<path d="M16.1831 11.0045C16.1831 11.5195 16.3877 12.0135 16.7519 12.3776C17.1161 12.7418 17.61 12.9464 18.1251 12.9464C18.6401 12.9464 19.1341 12.7418 19.4982 12.3776C19.8624 12.0135 20.067 11.5195 20.067 11.0045C20.067 10.4894 19.8624 9.99548 19.4982 9.63129C19.1341 9.2671 18.6401 9.0625 18.1251 9.0625C17.61 9.0625 17.1161 9.2671 16.7519 9.63129C16.3877 9.99548 16.1831 10.4894 16.1831 11.0045ZM19.0961 15.5357H17.1541C16.9761 15.5357 16.8304 15.6814 16.8304 15.8594V26.8638C16.8304 27.0419 16.9761 27.1875 17.1541 27.1875H19.0961C19.2741 27.1875 19.4197 27.0419 19.4197 26.8638V15.8594C19.4197 15.6814 19.2741 15.5357 19.0961 15.5357Z" fill="#ECA917"/>
</svg>
