<svg width="28" height="28" viewBox="0 0 28 28" fill="none" xmlns="http://www.w3.org/2000/svg">
<path fill-rule="evenodd" clip-rule="evenodd" d="M13.9998 0.666626C10.3785 0.666626 9.92517 0.682626 8.5025 0.746626C7.08384 0.811959 6.1145 1.03729 5.2665 1.36663C4.37649 1.70109 3.57017 2.22573 2.90384 2.90396C2.22565 3.57032 1.701 4.37663 1.3665 5.26663C1.03717 6.11463 0.811837 7.08396 0.746504 8.50263C0.68117 9.92529 0.666504 10.3786 0.666504 14C0.666504 17.6213 0.68117 18.0746 0.746504 19.4973C0.811837 20.916 1.03717 21.8853 1.3665 22.7333C1.70104 23.6233 2.22568 24.4296 2.90384 25.096C3.57023 25.7741 4.37653 26.2988 5.2665 26.6333C6.1145 26.9626 7.08384 27.188 8.5025 27.2533C9.92517 27.3173 10.3785 27.3333 13.9998 27.3333C17.6212 27.3333 18.0745 27.3173 19.4972 27.2533C20.9158 27.188 21.8852 26.9626 22.7332 26.6333C23.6232 26.2988 24.4295 25.7742 25.0958 25.096C25.774 24.4296 26.2987 23.6233 26.6332 22.7333C26.9625 21.8853 27.1878 20.916 27.2532 19.4973C27.3172 18.0746 27.3332 17.6213 27.3332 14C27.3332 10.3786 27.3172 9.92529 27.2532 8.50263C27.1878 7.08396 26.9625 6.11463 26.6332 5.26663C26.2987 4.37663 25.774 3.57032 25.0958 2.90396C24.4295 2.22573 23.6232 1.70109 22.7332 1.36663C21.8852 1.03729 20.9158 0.811959 19.4972 0.746626C18.0745 0.682626 17.6212 0.666626 13.9998 0.666626ZM13.9998 3.06929C17.5598 3.06929 17.9812 3.08263 19.3865 3.14663C20.6878 3.20663 21.3932 3.42263 21.8638 3.60529C22.4852 3.84796 22.9305 4.13729 23.3972 4.60263C23.8638 5.06929 24.1518 5.51463 24.3945 6.13596C24.5758 6.60663 24.7945 7.31196 24.8532 8.61196C24.9172 10.0186 24.9305 10.4386 24.9305 14C24.9305 17.56 24.9172 17.9813 24.8532 19.3866C24.7932 20.688 24.5758 21.3933 24.3945 21.864C24.1807 22.4431 23.84 22.9671 23.3972 23.3973C22.9305 23.864 22.4852 24.152 21.8638 24.3946C21.3932 24.576 20.6878 24.7946 19.3878 24.8533C17.9825 24.9173 17.5612 24.9306 13.9998 24.9306C10.4398 24.9306 10.0172 24.9173 8.61317 24.8533C7.31184 24.7933 6.6065 24.576 6.13584 24.3946C5.55662 24.1809 5.03266 23.8401 4.6025 23.3973C4.15965 22.9671 3.81885 22.4432 3.60517 21.864C3.4225 21.3933 3.20517 20.688 3.1465 19.388C3.0825 17.9813 3.06917 17.5613 3.06917 14C3.06917 10.44 3.0825 10.0186 3.1465 8.61329C3.2065 7.31196 3.4225 6.60663 3.60517 6.13596C3.84784 5.51463 4.13717 5.06929 4.6025 4.60263C5.06917 4.13596 5.5145 3.84796 6.13584 3.60529C6.6065 3.42263 7.31184 3.20529 8.61184 3.14663C10.0185 3.08263 10.4385 3.06929 13.9998 3.06929ZM13.9998 18.444C12.8212 18.444 11.6909 17.9758 10.8575 17.1423C10.024 16.3089 9.55584 15.1786 9.55584 14C9.55584 12.8213 10.024 11.691 10.8575 10.8576C11.6909 10.0242 12.8212 9.55596 13.9998 9.55596C15.1785 9.55596 16.3088 10.0242 17.1422 10.8576C17.9756 11.691 18.4438 12.8213 18.4438 14C18.4438 15.1786 17.9756 16.3089 17.1422 17.1423C16.3088 17.9758 15.1785 18.444 13.9998 18.444ZM13.9998 7.15329C13.1007 7.15329 12.2104 7.33039 11.3797 7.67446C10.5491 8.01854 9.79428 8.52286 9.15851 9.15864C8.52274 9.79441 8.01842 10.5492 7.67434 11.3799C7.33026 12.2105 7.15317 13.1008 7.15317 14C7.15317 14.8991 7.33026 15.7894 7.67434 16.6201C8.01842 17.4507 8.52274 18.2055 9.15851 18.8413C9.79428 19.4771 10.5491 19.9814 11.3797 20.3255C12.2104 20.6695 13.1007 20.8466 13.9998 20.8466C15.8157 20.8466 17.5572 20.1253 18.8412 18.8413C20.1252 17.5573 20.8465 15.8158 20.8465 14C20.8465 12.1841 20.1252 10.4426 18.8412 9.15864C17.5572 7.87464 15.8157 7.15329 13.9998 7.15329ZM22.7172 6.88263C22.7172 7.09274 22.6758 7.3008 22.5954 7.49492C22.515 7.68904 22.3971 7.86542 22.2485 8.014C22.1 8.16257 21.9236 8.28043 21.7295 8.36083C21.5353 8.44124 21.3273 8.48263 21.1172 8.48263C20.9071 8.48263 20.699 8.44124 20.5049 8.36083C20.3108 8.28043 20.1344 8.16257 19.9858 8.014C19.8372 7.86542 19.7194 7.68904 19.639 7.49492C19.5586 7.3008 19.5172 7.09274 19.5172 6.88263C19.5172 6.45828 19.6857 6.05131 19.9858 5.75126C20.2859 5.4512 20.6928 5.28263 21.1172 5.28263C21.5415 5.28263 21.9485 5.4512 22.2485 5.75126C22.5486 6.05131 22.7172 6.45828 22.7172 6.88263Z" fill="#ECA917"/>
</svg>
