<svg width="213" height="63" viewBox="0 0 213 63" fill="none" xmlns="http://www.w3.org/2000/svg">
<path d="M14.35 50.3C11.55 50.3 9.35 49.5 7.75 47.9C6.18333 46.3 5.4 43.75 5.4 40.25C5.4 37.2833 5.93333 33.95 7 30.25C8.06667 26.55 9.61667 23.3833 11.65 20.75C13.7167 18.1167 16.15 16.8 18.95 16.8C19.95 16.8 20.8167 16.9333 21.55 17.2C20.0833 18.0667 18.6667 19.85 17.3 22.55C15.9667 25.25 14.8833 28.2667 14.05 31.6C13.2167 34.9333 12.8 37.8833 12.8 40.45C12.8 42.25 13.0333 43.6667 13.5 44.7C13.9667 45.7333 14.7 46.25 15.7 46.25C17.3333 46.25 18.95 45.0833 20.55 42.75C22.1833 40.3833 23.5167 37.4167 24.55 33.85C25.6167 30.2833 26.15 26.85 26.15 23.55C26.15 21.4833 25.9667 19.8333 25.6 18.6C25.2667 17.3333 24.6333 16.3833 23.7 15.75C22.7667 15.1167 21.45 14.8 19.75 14.8C17.1833 14.8 14.8 15.3333 12.6 16.4C10.4 17.4333 8.63333 18.9333 7.3 20.9C6 22.8333 5.35 25.0833 5.35 27.65C5.35 28.55 5.43333 29.2167 5.6 29.65C5.76667 30.05 5.85 30.2833 5.85 30.35C4.18333 30.35 2.91667 30.0167 2.05 29.35C1.21667 28.6833 0.8 27.6167 0.8 26.15C0.8 23.85 1.73333 21.65 3.6 19.55C5.5 17.45 8 15.75 11.1 14.45C14.2333 13.15 17.5167 12.5 20.95 12.5C25.1167 12.5 28.1333 13.6333 30 15.9C31.8667 18.1667 32.8 21.3 32.8 25.3C32.8 28.8667 32.1333 32.5833 30.8 36.45C29.4667 40.3167 27.4 43.6 24.6 46.3C21.8333 48.9667 18.4167 50.3 14.35 50.3ZM37.052 23.15H44.252L43.452 26.9C45.1186 25.4667 47.0686 24.75 49.302 24.75C51.1686 24.75 52.652 25.3667 53.752 26.6C54.852 27.8333 55.402 29.85 55.402 32.65C55.402 35.2833 55.0186 37.95 54.252 40.65C53.4853 43.3167 52.1853 45.6 50.352 47.5C48.5186 49.3667 46.102 50.3 43.102 50.3C40.9686 50.3 39.552 49.7 38.852 48.5L36.252 60.7L28.702 62.5L37.052 23.15ZM41.552 45.95C43.152 45.95 44.4686 45.2 45.502 43.7C46.5686 42.2 47.3353 40.4167 47.802 38.35C48.302 36.25 48.552 34.3 48.552 32.5C48.552 29.7333 47.7186 28.35 46.052 28.35C45.452 28.35 44.8353 28.5667 44.202 29C43.602 29.4333 43.0686 30.0333 42.602 30.8L39.652 44.8C39.9186 45.5667 40.552 45.95 41.552 45.95ZM62.6406 50.3C60.7406 50.3 59.1573 49.65 57.8906 48.35C56.624 47.05 55.9906 45.0167 55.9906 42.25C55.9906 39.7833 56.474 37.2 57.4406 34.5C58.4406 31.7667 59.9073 29.4667 61.8406 27.6C63.8073 25.7 66.1406 24.75 68.8406 24.75C70.2073 24.75 71.224 24.9833 71.8906 25.45C72.5573 25.9167 72.8906 26.5333 72.8906 27.3V27.65L73.4406 25H80.6406L77.0406 42C76.9073 42.5 76.8406 43.0333 76.8406 43.6C76.8406 44.2667 76.9906 44.75 77.2906 45.05C77.624 45.3167 78.1573 45.45 78.8906 45.45C79.3573 45.45 79.724 45.3833 79.9906 45.25C79.2573 47.1167 78.5573 48.4333 77.8906 49.2C77.224 49.9333 76.2573 50.3 74.9906 50.3C73.624 50.3 72.5073 49.9 71.6406 49.1C70.8073 48.2667 70.2906 47.1167 70.0906 45.65C68.0573 48.75 65.574 50.3 62.6406 50.3ZM65.8906 45.45C66.724 45.45 67.5406 45.0667 68.3406 44.3C69.174 43.5 69.7406 42.4167 70.0406 41.05L72.4406 29.75C72.4406 29.3167 72.274 28.9 71.9406 28.5C71.6073 28.0667 71.0906 27.85 70.3906 27.85C69.0573 27.85 67.8573 28.6333 66.7906 30.2C65.724 31.7333 64.8906 33.6 64.2906 35.8C63.6906 37.9667 63.3906 39.8833 63.3906 41.55C63.3906 43.2167 63.624 44.2833 64.0906 44.75C64.5906 45.2167 65.1906 45.45 65.8906 45.45ZM112.62 50.85C110.02 50.85 108.72 49.7333 108.72 47.5C108.72 46.7667 108.82 45.9333 109.02 45C109.254 44.0333 109.57 42.8 109.97 41.3C110.437 39.7333 110.787 38.4 111.02 37.3C111.254 36.2 111.37 35.2167 111.37 34.35C111.37 32.0833 110.37 30.95 108.37 30.95C107.804 30.95 107.254 31.0167 106.72 31.15L102.72 50H95.5203L102.77 16C100.537 16.9333 98.8036 18.3333 97.5703 20.2C96.3703 22.0667 95.7703 24.3167 95.7703 26.95C95.7703 28.1833 95.887 29.05 96.1203 29.55C96.3536 30.0167 96.4703 30.2833 96.4703 30.35C94.6703 30.35 93.3203 29.9833 92.4203 29.25C91.5536 28.4833 91.1203 27.2333 91.1203 25.5C91.1203 23.3667 91.987 21.3 93.7203 19.3C95.487 17.2667 97.737 15.6333 100.47 14.4C103.204 13.1333 105.937 12.5 108.67 12.5C109.137 12.5 109.804 12.5333 110.67 12.6L107.42 27.9L112.57 21C116.67 15.4667 118.737 12.7167 118.77 12.75H124.02L110.12 28.75L111.87 28.7C114.137 28.7 115.737 29.1833 116.67 30.15C117.604 31.0833 118.07 32.3833 118.07 34.05C118.07 35.0167 117.954 36.05 117.72 37.15C117.487 38.2167 117.154 39.55 116.72 41.15C116.454 42.1833 116.204 43.2 115.97 44.2C115.737 45.2 115.62 46.0333 115.62 46.7C115.62 47.4667 115.787 48.15 116.12 48.75C116.487 49.35 116.97 49.7667 117.57 50C115.537 50.5667 113.887 50.85 112.62 50.85ZM125.8 50.3C124.2 50.3 122.9 49.8 121.9 48.8C120.933 47.8 120.45 46.3 120.45 44.3C120.45 43.4667 120.583 42.3833 120.85 41.05L126.2 16L133.6 15L127.85 42C127.716 42.5 127.65 43.0333 127.65 43.6C127.65 44.2667 127.8 44.75 128.1 45.05C128.433 45.3167 128.966 45.45 129.7 45.45C130.666 45.45 131.566 45.05 132.4 44.25C133.233 43.4167 133.833 42.35 134.2 41.05H136.3C135.066 44.65 133.483 47.1 131.55 48.4C129.616 49.6667 127.7 50.3 125.8 50.3ZM141.48 50.2C139.013 50.2 137.063 49.5667 135.63 48.3C134.196 47.0333 133.48 45.0333 133.48 42.3C133.48 40.0333 133.946 37.5167 134.88 34.75C135.813 31.9833 137.313 29.6 139.38 27.6C141.446 25.5667 144.046 24.55 147.18 24.55C151.446 24.55 153.58 27.2167 153.58 32.55V32.6C153.68 32.6333 153.863 32.65 154.13 32.65C155.23 32.65 156.496 32.3667 157.93 31.8C159.363 31.2 160.663 30.4833 161.83 29.65L162.28 31C161.313 32.0333 160.046 32.9167 158.48 33.65C156.946 34.35 155.263 34.85 153.43 35.15C153.163 38.1833 152.48 40.8333 151.38 43.1C150.28 45.3667 148.863 47.1167 147.13 48.35C145.396 49.5833 143.513 50.2 141.48 50.2ZM143.48 45.7C144.28 45.7 145.08 45.25 145.88 44.35C146.68 43.4167 147.38 42.1667 147.98 40.6C148.58 39 149.013 37.2333 149.28 35.3C148.38 35.1 147.93 34.4 147.93 33.2C147.93 31.8333 148.446 30.9333 149.48 30.5C149.413 29.4 149.246 28.65 148.98 28.25C148.713 27.8167 148.246 27.6 147.58 27.6C146.48 27.6 145.413 28.4 144.38 30C143.346 31.6 142.513 33.5167 141.88 35.75C141.246 37.9833 140.93 39.95 140.93 41.65C140.93 43.25 141.113 44.3333 141.48 44.9C141.846 45.4333 142.513 45.7 143.48 45.7ZM159.952 23.15H167.152L166.352 26.9C168.019 25.4667 169.969 24.75 172.202 24.75C174.069 24.75 175.552 25.3667 176.652 26.6C177.752 27.8333 178.302 29.85 178.302 32.65C178.302 35.2833 177.919 37.95 177.152 40.65C176.386 43.3167 175.086 45.6 173.252 47.5C171.419 49.3667 169.002 50.3 166.002 50.3C163.869 50.3 162.452 49.7 161.752 48.5L159.152 60.7L151.602 62.5L159.952 23.15ZM164.452 45.95C166.052 45.95 167.369 45.2 168.402 43.7C169.469 42.2 170.236 40.4167 170.702 38.35C171.202 36.25 171.452 34.3 171.452 32.5C171.452 29.7333 170.619 28.35 168.952 28.35C168.352 28.35 167.736 28.5667 167.102 29C166.502 29.4333 165.969 30.0333 165.502 30.8L162.552 44.8C162.819 45.5667 163.452 45.95 164.452 45.95ZM185.541 50.3C183.641 50.3 182.058 49.65 180.791 48.35C179.524 47.05 178.891 45.0167 178.891 42.25C178.891 39.7833 179.374 37.2 180.341 34.5C181.341 31.7667 182.808 29.4667 184.741 27.6C186.708 25.7 189.041 24.75 191.741 24.75C193.108 24.75 194.124 24.9833 194.791 25.45C195.458 25.9167 195.791 26.5333 195.791 27.3V27.65L196.341 25H203.541L199.941 42C199.808 42.5 199.741 43.0333 199.741 43.6C199.741 44.2667 199.891 44.75 200.191 45.05C200.524 45.3167 201.058 45.45 201.791 45.45C202.258 45.45 202.624 45.3833 202.891 45.25C202.158 47.1167 201.458 48.4333 200.791 49.2C200.124 49.9333 199.158 50.3 197.891 50.3C196.524 50.3 195.408 49.9 194.541 49.1C193.708 48.2667 193.191 47.1167 192.991 45.65C190.958 48.75 188.474 50.3 185.541 50.3ZM188.791 45.45C189.624 45.45 190.441 45.0667 191.241 44.3C192.074 43.5 192.641 42.4167 192.941 41.05L195.341 29.75C195.341 29.3167 195.174 28.9 194.841 28.5C194.508 28.0667 193.991 27.85 193.291 27.85C191.958 27.85 190.758 28.6333 189.691 30.2C188.624 31.7333 187.791 33.6 187.191 35.8C186.591 37.9667 186.291 39.8833 186.291 41.55C186.291 43.2167 186.524 44.2833 186.991 44.75C187.491 45.2167 188.091 45.45 188.791 45.45Z" fill="#ECA917"/>
</svg>
