<svg width="44" height="41" viewBox="0 0 44 41" fill="none" xmlns="http://www.w3.org/2000/svg">
<path d="M18.1544 18.8028C18.5938 19.0439 19.1112 19.1 19.5928 18.9589C20.0744 18.8179 20.4807 18.4911 20.7223 18.0506C20.964 17.61 21.0212 17.0918 20.8814 16.6098C20.7416 16.1279 20.4163 15.7217 19.9769 15.4807C19.5375 15.2396 19.0201 15.1835 18.5385 15.3246C18.0569 15.4656 17.6506 15.7924 17.409 16.2329C17.1673 16.6735 17.1101 17.1917 17.2499 17.6737C17.3897 18.1556 17.715 18.5618 18.1544 18.8028ZM24.8783 26.1137C24.6367 26.5542 24.2303 26.881 23.7488 27.022C23.2672 27.1631 22.7498 27.107 22.3104 26.8659C21.871 26.6249 21.5456 26.2187 21.4058 25.7368C21.266 25.2548 21.3233 24.7366 21.5649 24.296C21.8066 23.8555 22.2129 23.5287 22.6945 23.3877C23.1761 23.2466 23.6935 23.3027 24.1329 23.5438C24.5722 23.7848 24.8976 24.191 25.0374 24.6729C25.1772 25.1549 25.12 25.6731 24.8783 26.1137ZM12.6704 28.8208C13.1118 29.063 13.6316 29.1194 14.1154 28.9777C14.5993 28.8359 15.0075 28.5076 15.2503 28.065C15.4931 27.6224 15.5506 27.1018 15.4101 26.6175C15.2697 26.1333 14.9428 25.7253 14.5013 25.4831C14.0599 25.2409 13.5401 25.1845 13.0563 25.3263C12.5724 25.468 12.1642 25.7963 11.9214 26.2389C11.6786 26.6815 11.6211 27.2022 11.7616 27.6864C11.902 28.1706 12.2289 28.5787 12.6704 28.8208ZM16.5485 3.33437C17.8834 0.901084 20.997 -0.0707264 23.4272 1.46477C32.9504 7.47813 39.7691 15.5464 42.984 25.7428C43.8974 28.6346 41.8716 31.4289 39.038 31.8692C34.6209 32.5682 30.1979 33.2285 25.7695 33.85L23.6484 37.7166C22.7743 39.3099 20.5898 40.3751 18.4954 39.2262C18.0942 39.0061 17.7607 38.7364 17.4892 38.4429L17.388 38.6274C16.5188 40.2118 14.3381 41.2647 12.2393 40.1133C10.5682 39.1966 10.0725 37.4879 10.3588 36.0462C8.64446 36.2911 6.7732 36.5539 5.1023 36.7879C2.00973 37.222 -0.242344 33.9427 1.25828 31.2072L16.5485 3.33437ZM19.218 35.2862C18.9022 35.8618 19.0406 36.6344 19.7144 37.004C20.3904 37.3748 21.1176 37.0741 21.4321 36.5008L23.8628 32.0698C23.959 31.8947 24.0952 31.7449 24.2601 31.6324C24.425 31.5199 24.6141 31.448 24.8118 31.4225C27.2305 31.1131 31.4038 30.4855 35.1061 29.9175C32.2632 20.9457 25.7507 12.9761 16.8656 8.01234L3.47459 32.423C3.36242 32.6289 3.30944 32.8618 3.32153 33.0958C3.33363 33.3298 3.41032 33.5558 3.54309 33.7484C3.67586 33.9411 3.8595 34.093 4.07357 34.1872C4.28763 34.2814 4.52373 34.3143 4.7556 34.2821C7.21198 33.9355 10.1076 33.5292 12.2865 33.2155C12.5191 33.182 12.7562 33.214 12.9713 33.3079C13.1865 33.4018 13.3711 33.5539 13.5045 33.7472C13.638 33.9404 13.715 34.1672 13.7269 34.4021C13.7388 34.6369 13.6852 34.8706 13.572 35.077L12.9576 36.197C12.6577 36.7436 12.7789 37.5213 13.4571 37.8933C13.6004 37.9766 13.7589 38.0301 13.9233 38.0508C14.0878 38.0716 14.2547 38.0591 14.4144 38.014C14.5741 37.969 14.7231 37.8924 14.8528 37.7887C14.9825 37.685 15.0902 37.5563 15.1694 37.4103L17.0016 34.0704C17.1633 33.7757 17.4351 33.5572 17.7572 33.4628C18.0793 33.3684 18.4254 33.406 18.7193 33.5672C19.0132 33.7285 19.2309 34.0001 19.3244 34.3225C19.4179 34.6449 19.3796 34.9915 19.218 35.2862ZM38.6515 29.3676C40.1173 29.1396 40.9701 27.7689 40.5724 26.5071C37.5647 16.9736 31.181 9.35795 22.0766 3.60612C20.9654 2.904 19.4487 3.30354 18.7649 4.55018L18.0846 5.79016C27.6344 11.1243 34.6496 19.7542 37.6367 29.525L38.6515 29.3676Z" fill="#ECA917"/>
</svg>
