<svg width="50" height="44" viewBox="0 0 50 44" fill="none" xmlns="http://www.w3.org/2000/svg">
<path d="M31.5347 15.2358C31.0497 13.7925 30.3098 13.2758 29.4539 13.2758C28.4106 13.2758 27.1939 14.0417 26.0497 14.835C25.3689 15.3083 22.7331 18.2192 21.2956 18.2192C21.1309 18.2236 20.9689 18.1758 20.8331 18.0825C19.4298 17.0892 21.1881 12.7608 21.1881 10.685C21.1881 8.67582 20.8231 7.90833 20.2639 7.90833C18.7181 7.90833 15.6898 13.7942 14.8456 15.4925C14.6073 15.9717 14.2748 16.1608 13.8889 16.1608C12.5398 16.1608 10.5331 13.84 9.61142 13.4842C9.47391 13.4284 9.32729 13.3984 9.17892 13.3958C7.63892 13.3958 7.67225 17.2267 7.69558 18.2433C8.53725 18.0133 9.32642 17.8717 10.0164 17.8717C11.7556 17.8717 12.8614 18.7725 12.5731 21.4167C12.5081 22.0108 12.1323 23.9042 12.7473 24.3217C12.846 24.3859 12.9621 24.4182 13.0798 24.4142C13.7889 24.4142 14.9123 23.54 15.3298 23.2733C15.8914 22.9133 16.4806 22.65 16.9789 22.65C17.5789 22.65 18.0473 23.0308 18.1814 24.085C18.2614 24.7092 17.9556 27.0842 18.5673 27.4633C18.657 27.5174 18.76 27.5454 18.8648 27.5442C19.9939 27.5442 21.9214 24.7225 22.7939 24.3992C23.2036 24.2474 23.6371 24.1704 24.0739 24.1717C25.2348 24.1717 26.3389 24.6842 27.4681 25.1175C27.6581 25.1908 27.8131 25.2225 27.9389 25.2225C28.6214 25.2225 28.4231 24.275 27.8389 23.6692C26.9881 22.7825 25.6381 23.1717 24.6914 22.5367C23.4889 21.73 25.1631 20.1092 25.8131 19.6283C26.5889 19.0533 28.3089 18.1292 29.6814 18.1292C30.3173 18.1292 30.8781 18.3275 31.2347 18.8492C31.9089 19.835 30.7873 21.08 31.0706 22.1867C31.1898 22.6458 31.4781 22.8042 31.8197 22.8042C32.5472 22.8042 33.5114 22.0858 33.5781 22.0175C34.0215 21.5568 34.4987 21.1298 35.0056 20.74C32.4722 20.1792 32.2572 17.3908 31.5347 15.2358Z" fill="#ECA917"/>
<path d="M10.7635 13.1592C10.7635 13.1592 12.9543 15.0917 13.8902 15.0917C14.0693 15.0917 14.2035 15.0208 14.266 14.8492C15.6127 11.1617 18.4602 6.9475 20.3193 6.9475C21.1302 6.9475 21.7527 7.75 21.9793 9.75C22.2727 12.3392 20.4818 16.2633 21.3427 17.1575C21.3614 17.1765 21.384 17.1913 21.4088 17.201C21.4336 17.2108 21.4602 17.2153 21.4868 17.2142C22.4543 17.2142 26.2768 12.3192 29.5485 12.3192C29.8003 12.3185 30.0511 12.3496 30.2952 12.4117C33.2427 13.1675 31.9652 18.1933 34.3577 19.6292C34.7538 19.8705 35.208 19.9998 35.6718 20.0033C36.5535 20.0033 37.3585 19.5008 37.551 18.4617C38.0368 15.8383 29.7052 10.7533 34.2127 10.7533C34.8593 10.7533 35.7702 10.8575 37.0085 11.0892C37.746 6.03583 37.4885 4.635 36.8285 4.635C36.076 4.635 34.7993 6.45417 33.8702 6.7675C33.8433 6.77652 33.8152 6.7813 33.7868 6.78167C33.256 6.78167 33.2743 4.87 32.366 4.87C31.7793 4.87 30.8068 5.6675 29.0518 8.28917C28.1468 9.64167 27.4693 10.1767 26.9343 10.1767C24.8993 10.1767 24.9568 2.3925 22.5152 2.3925C22.0218 2.3925 21.4268 2.71 20.6918 3.4725C19.5635 4.64417 18.5102 5.05917 17.5243 5.05917C15.1235 5.05917 13.1343 2.59333 11.5035 2.59333C10.8602 2.59333 10.271 2.9775 9.736 4.05083C8.6285 6.27667 12.3785 6.16167 10.7635 13.1592ZM13.6327 14.1608C13.1943 13.9642 12.416 13.4375 11.686 12.8375C11.821 12.1767 11.9043 11.5833 11.9527 11.0367C12.1585 10.6917 12.4118 10.3517 12.721 10.0367C13.9802 8.7525 15.5935 8.34667 16.3843 9.08833C15.2568 10.6425 14.2643 12.545 13.6327 14.1608ZM32.1418 10.8492C31.7302 11.8233 32.531 12.8517 33.7568 14.1958C33.6713 14.2893 33.5718 14.3688 33.4618 14.4317C33.3451 14.4964 33.2183 14.5412 33.0868 14.5642C32.6968 13.2475 32.0427 11.9833 30.4985 11.5875C30.2716 11.5321 30.0401 11.4978 29.8068 11.485C29.3885 10.125 29.5827 8.8475 30.3752 8.40583C31.2485 7.91667 32.5218 8.615 33.391 9.97C32.9068 10.0625 32.3802 10.2858 32.1418 10.8492Z" fill="#ECA917"/>
<path d="M38.3394 18.48C38.1569 19.6725 39.8902 19.8858 39.0619 21.8392C38.6369 22.8383 35.0377 25.1417 35.3027 25.6458C35.6952 26.3833 36.1669 26.67 36.6444 26.67C37.5894 26.67 38.5519 25.5483 38.9394 24.5767C39.4469 23.3058 39.5777 19.97 40.8144 19.3517C41.0236 19.2458 41.2302 19.1992 41.4344 19.1992C42.6552 19.1992 43.7961 20.85 44.8961 21.0733C45.1644 19.8783 44.9727 18.6383 45.2461 17.4367C40.6027 17.3783 47.8261 11.0325 43.6986 8.44333C43.4761 8.30417 43.2894 8.24167 43.1261 8.2425C41.8269 8.2425 42.1294 12.2208 38.8469 12.2208C38.5852 12.2208 38.2994 12.195 37.9886 12.14C36.7877 11.9283 35.9586 11.83 35.4161 11.83C32.2544 11.8317 38.8519 15.1575 38.3394 18.48Z" fill="#ECA917"/>
<path d="M46.5642 12.2458C46.6826 11.53 46.6887 10.8002 46.5825 10.0825C46.2842 8.08333 44.7217 6.45667 43.1 6.45583C42.5458 6.45583 41.2192 6.68667 40.5917 8.65583C40.1697 8.47951 39.7437 8.3128 39.3142 8.15583C39.685 5.66 39.5458 3.94917 38.88 3.075C38.7194 2.85628 38.5094 2.67858 38.2671 2.55637C38.0249 2.43415 37.7572 2.37086 37.4858 2.37167C36.6142 2.37167 35.635 2.955 34.4183 4.2025L34.3742 4.08417C34.1158 3.38583 33.6842 2.2175 32.5258 2.2175C31.7342 2.2175 30.6858 2.70583 28.4825 5.9175C27.8435 5.8705 27.2037 5.83632 26.5633 5.815L26.445 5.385C25.7575 2.86083 24.9775 0.000833333 22.78 0H22.7792C21.8833 0 20.9408 0.5275 19.8967 1.61167C19.1192 2.42 18.35 2.8125 17.5442 2.8125C16.5617 2.8125 15.5558 2.24917 14.5825 1.705C13.5983 1.155 12.5817 0.585833 11.53 0.585833C10.2833 0.585833 9.27 1.35 8.43167 2.9225C7.47417 4.71917 8.00667 5.90583 8.52167 7.05417C8.74667 7.555 8.9825 8.08583 9.15 8.7375C3.56917 11.1342 0 14.7633 0 18.8325C0 30.11 11.1933 43.335 25 43.335C38.8075 43.335 50 30.11 50 18.8325C50 16.4275 48.735 14.1808 46.5642 12.2458ZM25 41.6358C14.4908 41.6358 5.65417 33.3892 2.715 24.7533C6.8475 28.9942 15.2717 31.9 25 31.9C34.7283 31.9 43.1508 28.9942 47.2833 24.7542C44.3442 33.3883 35.5083 41.6358 25 41.6358ZM34.2792 27.0642C34.0783 27.6958 33.4542 28.6558 32.68 29.3317C31.485 30.3742 30.0283 30.5983 29.3342 29.87C28.7508 29.255 28.8467 28.1125 29.5167 27.0433C30.8883 24.8533 32.855 24.3733 33.7083 24.8067C33.6917 24.8667 33.6683 24.9242 33.6567 24.9883C33.5383 25.6542 33.7525 26.3525 34.2792 27.0642ZM47.0858 16.3575C46.27 16.3575 45.8775 18.6175 45.8192 20.0383C45.7675 21.2908 45.4058 21.7083 44.8883 21.7083C44.1433 21.7083 43.075 20.845 42.1425 20.3567C41.8442 20.2 41.615 20.1308 41.435 20.1308C40.9008 20.1308 40.8033 20.755 40.62 21.6383C40.3108 23.1292 39.9425 24.6758 39.1342 25.9617C38.5408 26.9058 37.6233 27.5625 36.7042 27.5625C36.1 27.5625 35.495 27.2792 34.98 26.6083C32.955 23.9767 37.4033 23.4383 38.29 21.6342C38.8033 20.5908 38.6392 20.2275 38.1692 20.2275C37.2442 20.2275 35.135 21.6392 34.7 22.0383C33.9317 22.7408 33.0492 23.7758 31.9692 23.7758C31.7867 23.7758 31.5975 23.7458 31.4025 23.68C30.2567 23.2933 30.0958 21.8517 30.3383 20.7808C30.54 19.8858 31.0042 19.0817 29.8075 19.0358C29.7653 19.0342 29.7231 19.0333 29.6808 19.0333C28.91 19.0333 28.1225 19.2867 27.4233 19.6033C26.575 19.9883 25.4017 20.6767 25.0942 21.6875C24.9983 21.9983 27.0558 22.3225 27.3758 22.4458C28.9792 23.0725 29.7633 26.09 28.0858 26.09C27.8692 26.09 27.6117 26.0392 27.3092 25.9292C26.2575 25.5367 25.2 24.9817 24.0992 24.9817C23.7375 24.9817 23.3717 25.0417 23.0008 25.1875C22.2325 25.4892 21.8125 26.35 21.2075 26.8892C20.3125 27.6925 19.5208 28.1242 18.8992 28.1242C18.0425 28.1242 17.5092 27.3042 17.475 25.5033C17.445 24.04 17.1642 23.5658 16.71 23.5658C15.9 23.5658 14.54 25.0783 13.0792 25.19C13.0367 25.1925 12.9958 25.1942 12.9567 25.1942C11.0075 25.1942 11.7658 21.4883 11.9175 20.3458C12.0833 19.1 11.3317 18.6575 10.1742 18.6575C8.87333 18.6575 7.06417 19.2158 5.47083 19.8217C5.5475 19.89 5.6275 19.95 5.70083 20.025C7.15917 21.48 7.63833 23.3992 6.77417 24.3083C5.90833 25.2158 4.02583 24.7717 2.56917 23.315C1.1125 21.8583 0.631667 19.9392 1.4975 19.0308C2.23667 18.25 3.38583 18.5125 4.36333 19.0333C5.64083 18.6042 6.93667 18.23 6.90667 17.6267C6.67917 13.0633 7.97333 12.2117 8.9725 12.2125C9.35336 12.222 9.72591 12.3259 10.0567 12.515C10.9583 6.7075 7.57583 6.31333 9.165 3.33083C9.9175 1.92 10.7033 1.43833 11.5317 1.43833C13.3125 1.43833 15.2883 3.66417 17.5458 3.66417C18.4783 3.66417 19.4592 3.28333 20.4933 2.20917C21.4208 1.24583 22.1675 0.851667 22.7817 0.851667C25.5292 0.8525 25.6025 8.74333 27.1733 8.74333C27.475 8.74333 27.8325 8.4525 28.2733 7.75917C30.5775 4.14083 31.8033 3.06833 32.5267 3.06833C33.5817 3.06833 33.5675 5.35 34.265 5.35C34.4083 5.35 34.5833 5.2525 34.8033 5.01833C35.9608 3.78583 36.8517 3.22167 37.4867 3.22167C38.9842 3.22167 39.0583 6.35583 37.8383 11.2383C37.8383 11.2383 38.1108 11.3075 38.51 11.3075C39.3608 11.3075 40.7833 10.995 41.34 9.04167C41.6908 7.81167 42.3733 7.30667 43.1017 7.30667C44.2517 7.30667 45.5142 8.565 45.76 10.2108C46.2075 13.2167 44.225 15.3458 44.38 16.2525C44.4067 16.4133 44.4858 16.4767 44.6042 16.4767C45.0483 16.4767 46.0458 15.5725 46.9167 15.5725C47.5658 15.5725 48.1458 16.0767 48.3692 17.8383C47.8592 16.7708 47.4342 16.3575 47.0858 16.3575Z" fill="#ECA917"/>
</svg>
